<svg id="Layer_1" data-name="Layer 1" xmlns="http://www.w3.org/2000/svg" viewBox="0 0 54 25.87"><defs><style>.cls-1{fill:#c00;}.cls-2{fill:#fff;}</style></defs><title>ncsu_loading</title><rect class="cls-1" width="54" height="25.87"/><polygon class="cls-2" points="7.55 6.74 7.57 6.74 9.68 12.4 11.81 12.4 11.81 4.66 10.3 4.66 10.3 10.02 10.28 10.02 8.22 4.66 6.03 4.66 6.03 12.4 7.55 12.4 7.55 6.74"/><path class="cls-2" d="M15.78,11.38c-.91,0-1-.86-1-2.84s.12-2.84,1-2.84c.48,0,.66.39.66,1.42H18c.06-1.66-.6-2.57-2.25-2.57-2.67,0-2.67,2-2.67,4s0,4,2.67,4c1.51,0,2.34-.67,2.34-2.73h-1.6C16.49,10.41,16.53,11.38,15.78,11.38Z"/><path class="cls-2" d="M26.33,10.29c0-2.43-3.26-2.3-3.26-3.77a.76.76,0,0,1,.84-.83c.65,0,.75.59.75,1.17h1.58c.11-1.62-.68-2.33-2.25-2.33-2,0-2.55,1-2.55,2.18,0,2.31,3.26,2.39,3.26,3.79a.77.77,0,0,1-.81.88C23,11.38,23,10.75,23,10H21.33c-.09,1.34.29,2.52,2.29,2.52C24.86,12.53,26.33,12.3,26.33,10.29Z"/><polygon class="cls-2" points="28.68 12.4 30.3 12.4 30.3 5.95 32.1 5.95 32.1 4.66 26.88 4.66 26.88 5.95 28.68 5.95 28.68 12.4"/><path class="cls-2" d="M33.76,4.66l-2.14,7.74h1.6l.44-1.72h2.21l.43,1.72H38l-2.1-7.74ZM34,9.5l.74-3.35h0l.78,3.35Z"/><polygon class="cls-2" points="40.91 12.4 40.91 5.95 42.72 5.95 42.72 4.66 37.49 4.66 37.49 5.95 39.3 5.95 39.3 12.4 40.91 12.4"/><polygon class="cls-2" points="47.78 11.21 45.09 11.21 45.09 8.95 47.49 8.95 47.49 7.76 45.09 7.76 45.09 5.85 47.7 5.85 47.7 4.66 43.47 4.66 43.47 12.4 47.78 12.4 47.78 11.21"/><path class="cls-2" d="M9.17,18.86c0,.83,0,2-1.29,2s-1.29-1.18-1.29-2v-4H6v4.4c0,1.63.86,2.06,1.85,2.06s1.85-.43,1.85-2.06v-4.4H9.17Z"/><polygon class="cls-2" points="14.84 20.42 14.82 20.44 12.26 14.88 11.39 14.88 11.39 21.21 11.96 21.21 11.96 15.61 11.97 15.59 14.55 21.21 15.4 21.21 15.4 14.88 14.84 14.88 14.84 20.42"/><rect class="cls-2" x="17.17" y="14.88" width="0.56" height="6.33"/><polygon class="cls-2" points="21.01 20.55 20.99 20.55 19.49 14.88 18.89 14.88 20.66 21.21 21.36 21.21 23.11 14.88 22.57 14.88 21.01 20.55"/><polygon class="cls-2" points="24.82 18.2 27.02 18.2 27.02 17.72 24.82 17.72 24.82 15.35 27.12 15.35 27.12 14.88 24.25 14.88 24.25 21.21 27.18 21.21 27.18 20.74 24.82 20.74 24.82 18.2"/><path class="cls-2" d="M30.77,17.92v0c.85-.19,1-.72,1-1.51,0-1.11-.31-1.52-1.53-1.52H28.49v6.33H29V18.14h1.06c1.22,0,1,1.22,1,1.49s0,1.39.09,1.58h.54c0-.24-.06-.49-.06-.74C31.71,18.21,31.66,18.11,30.77,17.92ZM30,17.67H29V15.35h1.15c.66,0,1,.17,1,1C31.19,17.45,30.8,17.67,30,17.67Z"/><path class="cls-2" d="M35,17.7c-.72-.52-1.19-.54-1.19-1.48,0-.75.43-1,1.11-1,.86,0,1.06.47,1.07,1.25h.57c0-.91-.28-1.73-1.6-1.73-1,0-1.73.46-1.72,1.55,0,.63.06,1,1.29,1.76.91.56,1.48.81,1.48,1.67a1,1,0,0,1-1.1,1.12c-1.13,0-1.18-.73-1.18-1.43h-.58c-.05,1.24.5,1.9,1.74,1.9a1.49,1.49,0,0,0,1.68-1.68C36.56,18.42,35.76,18.26,35,17.7Z"/><rect class="cls-2" x="38.14" y="14.88" width="0.56" height="6.33"/><polygon class="cls-2" points="39.91 15.35 41.46 15.35 41.46 21.21 42.02 21.21 42.02 15.35 43.56 15.35 43.56 14.88 39.91 14.88 39.91 15.35"/><polygon class="cls-2" points="47.79 14.88 46.27 18.03 44.83 14.88 44.19 14.88 45.98 18.58 45.98 21.21 46.55 21.21 46.55 18.58 48.35 14.88 47.79 14.88"/></svg>